<svg width="135" height="40" viewBox="0 0 135 40" fill="none" xmlns="http://www.w3.org/2000/svg">
<path fill-rule="evenodd" clip-rule="evenodd" d="M129.998 40H5.00184C2.24512 40 0 37.7456 0 35V5C0 2.24439 2.24512 0 5.00184 0H129.998C132.752 0 135 2.24439 135 5V35C135 37.7456 132.752 40 129.998 40Z" fill="#2B2E27"/>
<path fill-rule="evenodd" clip-rule="evenodd" d="M129.998 0.800499C132.31 0.800499 134.203 2.68828 134.203 5V35C134.203 37.3117 132.323 39.1995 129.998 39.1995H5.00184C2.68967 39.1995 0.797215 37.3117 0.797215 35V5C0.797215 2.68828 2.67725 0.800499 5.00184 0.800499H129.998ZM129.998 0H5.00184C2.24512 0 0 2.25436 0 5V35C0 37.7556 2.24512 40 5.00184 40H129.998C132.752 40 135 37.7556 135 35V5C135 2.25436 132.752 0 129.998 0Z" fill="#A6A6A6"/>
<path d="M71.1184 13.232C70.2169 13.232 69.4569 12.9153 68.8559 12.2918C68.2599 11.6858 67.9271 10.8504 67.942 9.99755C67.942 9.08732 68.2499 8.31675 68.8559 7.70577C69.4545 7.08233 70.2144 6.76562 71.1159 6.76562C72.0075 6.76562 72.7675 7.08233 73.3784 7.70577C73.9844 8.3367 74.2923 9.10727 74.2923 9.99755C74.2824 10.9103 73.9745 11.6808 73.3784 12.2893C72.7799 12.9177 72.0199 13.232 71.1184 13.232ZM44.2939 13.232C43.4123 13.232 42.6473 12.9202 42.0215 12.3043C41.4006 11.6908 41.0852 10.9153 41.0852 10C41.0852 9.08483 41.4006 8.30927 42.0215 7.6958C42.6349 7.07984 43.3998 6.76812 44.2939 6.76812C44.731 6.76812 45.1557 6.8554 45.563 7.03246C45.9628 7.20453 46.2882 7.43894 46.5291 7.72572L46.5887 7.79804L45.9157 8.46139L45.8461 8.37909C45.4661 7.92523 44.957 7.70328 44.284 7.70328C43.683 7.70328 43.1589 7.91774 42.7268 8.34169C42.2922 8.76812 42.0712 9.32672 42.0712 10.0025C42.0712 10.6783 42.2922 11.2369 42.7268 11.6634C43.1589 12.0873 43.683 12.3018 44.284 12.3018C44.9247 12.3018 45.4636 12.0873 45.8834 11.6634C46.1317 11.414 46.2857 11.0649 46.3403 10.6235H44.1822V9.69081H47.2667L47.2791 9.7756C47.3015 9.93271 47.3238 10.0948 47.3238 10.2444C47.3238 11.1048 47.0655 11.8005 46.5539 12.3143C45.9728 12.9227 45.2128 13.232 44.2939 13.232ZM79.9597 13.0998H79.0086L76.0954 8.41899L76.1202 9.26188V13.0973H75.169V6.90029H76.2543L76.2841 6.94767L79.0235 11.3566L78.9986 10.5162V6.90029H79.9597V13.0998ZM63.9708 13.0998H63.0072V7.83296H61.3358V6.90029H65.6398V7.83296H63.9684V13.0998H63.9708ZM60.551 13.0998H59.5899V6.90029H60.551V13.0998ZM55.1494 13.0998H54.1883V7.83296H52.5168V6.90029H56.8208V7.83296H55.1494V13.0998ZM51.9084 13.0898H48.2228V6.90029H51.9084V7.83296H49.1864V9.5337H51.6426V10.4564H49.1864V12.1571H51.9084V13.0898ZM69.5612 11.6509C69.9909 12.0823 70.5124 12.2993 71.1184 12.2993C71.7418 12.2993 72.2509 12.0873 72.6756 11.6509C73.0978 11.227 73.3114 10.6709 73.3114 10C73.3114 9.32922 73.0978 8.77061 72.6781 8.34917C72.2484 7.91774 71.7244 7.70079 71.1209 7.70079C70.4975 7.70079 69.9884 7.91276 69.5662 8.34917C69.144 8.77311 68.9304 9.32922 68.9304 10C68.9304 10.6709 69.1415 11.2295 69.5612 11.6509Z" fill="white"/>
<path fill-rule="evenodd" clip-rule="evenodd" d="M67.8526 21.7554C65.5056 21.7554 63.6032 23.5434 63.6032 26.0098C63.6032 28.4537 65.518 30.2641 67.8526 30.2641C70.1995 30.2641 72.1019 28.4636 72.1019 26.0098C72.1019 23.5434 70.1995 21.7554 67.8526 21.7554ZM67.8526 28.5784C66.5686 28.5784 65.4634 27.511 65.4634 25.9998C65.4634 24.4661 66.5711 23.4213 67.8526 23.4213C69.1366 23.4213 70.2417 24.4661 70.2417 25.9998C70.2442 27.521 69.1366 28.5784 67.8526 28.5784ZM58.5815 21.7554C56.2346 21.7554 54.3322 23.5434 54.3322 26.0098C54.3322 28.4537 56.247 30.2641 58.5815 30.2641C60.9285 30.2641 62.8309 28.4636 62.8309 26.0098C62.8309 23.5434 60.926 21.7554 58.5815 21.7554ZM58.5815 28.5784C57.2975 28.5784 56.1924 27.511 56.1924 25.9998C56.1924 24.4661 57.3 23.4213 58.5815 23.4213C59.8655 23.4213 60.9707 24.4661 60.9707 25.9998C60.9707 27.521 59.8655 28.5784 58.5815 28.5784ZM47.5496 23.0547V24.8552H51.8536C51.722 25.8651 51.3892 26.6108 50.8801 27.122C50.2492 27.7554 49.2757 28.4437 47.5596 28.4437C44.9146 28.4437 42.8458 26.2991 42.8458 23.6432C42.8458 20.9873 44.9146 18.8427 47.5596 18.8427C48.9876 18.8427 50.0282 19.4088 50.8006 20.132L52.0722 18.8552C50.9993 17.8227 49.5712 17.0322 47.5695 17.0322C43.9411 17.0322 40.8962 19.9998 40.8962 23.6332C40.8962 27.2766 43.9386 30.2342 47.5695 30.2342C49.529 30.2342 50.9993 29.5908 52.1616 28.3789C53.3462 27.1893 53.7212 25.511 53.7212 24.1569C53.7212 23.7355 53.6889 23.3564 53.6219 23.0347H47.5472C47.5496 23.0322 47.5496 23.0547 47.5496 23.0547ZM92.673 24.4562C92.3179 23.5011 91.245 21.7454 89.0446 21.7454C86.8641 21.7454 85.0511 23.4686 85.0511 25.9998C85.0511 28.3888 86.8442 30.2542 89.2557 30.2542C91.1929 30.2542 92.3204 29.0646 92.7848 28.3664L91.3468 27.3988C90.87 28.1095 90.2069 28.5759 89.2656 28.5759C88.3144 28.5759 87.6488 28.142 87.2068 27.2866L92.8717 24.93C92.8717 24.9325 92.673 24.4562 92.673 24.4562ZM86.8963 25.8776C86.8516 24.2342 88.1679 23.3988 89.1092 23.3988C89.8517 23.3988 90.4701 23.7654 90.6813 24.2991L86.8963 25.8776ZM82.2943 29.9998H84.1545V17.5011H82.2943V29.9998ZM79.2396 22.7006H79.1725C78.7528 22.1993 77.9556 21.7454 76.9373 21.7454C74.8239 21.7454 72.8768 23.6133 72.8768 26.0123C72.8768 28.4013 74.8139 30.2467 76.9373 30.2467C77.9432 30.2467 78.7528 29.7903 79.1725 29.2791H79.2396V29.8901C79.2396 31.5135 78.3753 32.3888 76.9821 32.3888C75.8421 32.3888 75.1343 31.5659 74.8462 30.8776L73.2294 31.5559C73.6939 32.6781 74.9331 34.0671 76.9796 34.0671C79.1601 34.0671 81.0079 32.7779 81.0079 29.6332V21.9998H79.2495V22.7006C79.252 22.7006 79.2396 22.7006 79.2396 22.7006ZM77.1037 28.5784C75.8198 28.5784 74.7469 27.5011 74.7469 26.0123C74.7469 24.511 75.8198 23.4237 77.1037 23.4237C78.3753 23.4237 79.3613 24.5235 79.3613 26.0123C79.3737 27.5011 78.3778 28.5784 77.1037 28.5784ZM101.383 17.5011H96.9348V29.9998H98.795V25.2666H101.385C103.444 25.2666 105.468 23.7679 105.468 21.3888C105.468 19.0098 103.452 17.5011 101.383 17.5011ZM101.437 23.521H98.7925V19.2317H101.437C102.831 19.2317 103.618 20.3863 103.618 21.3764C103.618 22.3564 102.821 23.521 101.437 23.521ZM112.924 21.733C111.573 21.733 110.18 22.334 109.603 23.6432L111.252 24.3315C111.608 23.6432 112.258 23.4088 112.946 23.4088C113.91 23.4088 114.883 23.9873 114.906 25.0198V25.1519C114.573 24.9624 113.843 24.6731 112.969 24.6731C111.188 24.6731 109.382 25.6507 109.382 27.4836C109.382 29.1619 110.843 30.2392 112.469 30.2392C113.719 30.2392 114.406 29.6731 114.836 29.0173H114.903V29.9848H116.696V25.1968C116.696 22.9674 115.047 21.733 112.924 21.733ZM112.69 28.5784C112.082 28.5784 111.23 28.2791 111.23 27.511C111.23 26.5434 112.293 26.1769 113.199 26.1769C114.019 26.1769 114.407 26.3539 114.893 26.5983C114.759 27.7205 113.815 28.5684 112.69 28.5784ZM123.238 21.9998L121.102 27.4213H121.035L118.822 21.9998H116.82L120.141 29.5784L118.249 33.7903H120.186L125.294 21.9998H123.238ZM106.494 29.9998H108.354V17.5011H106.494V29.9998Z" fill="white"/>
<path fill-rule="evenodd" clip-rule="evenodd" d="M10.3913 7.53364C10.1032 7.84536 9.93677 8.32167 9.93677 8.94511V31.0573C9.93677 31.6808 10.1032 32.1571 10.4012 32.4563L10.4782 32.5237L22.8164 20.1346V19.8578L10.4682 7.46631L10.3913 7.53364Z" fill="url(#paint0_linear)"/>
<path fill-rule="evenodd" clip-rule="evenodd" d="M26.9214 24.2768L22.8062 20.1446V19.8553L26.9214 15.7231L27.0108 15.778L31.8786 18.5561C33.2718 19.3441 33.2718 20.6458 31.8786 21.4438L27.0108 24.2219L26.9214 24.2768Z" fill="url(#paint1_linear)"/>
<path fill-rule="evenodd" clip-rule="evenodd" d="M27.0109 24.2219L22.8063 20L10.3911 32.4663C10.8456 32.9551 11.608 33.01 12.4599 32.5337L27.0109 24.2219Z" fill="url(#paint2_linear)"/>
<path fill-rule="evenodd" clip-rule="evenodd" d="M27.0109 15.7779L12.4599 7.47869C11.608 6.98992 10.8431 7.05725 10.3911 7.54603L22.8063 19.9999L27.0109 15.7779Z" fill="url(#paint3_linear)"/>
<path opacity="0.2" fill-rule="evenodd" clip-rule="evenodd" d="M26.9214 24.1323L12.4697 32.3767C11.6625 32.843 10.9423 32.8106 10.4779 32.3867L10.4009 32.464L10.4779 32.5313C10.9423 32.9527 11.6625 32.9877 12.4697 32.5213L27.0208 24.2221L26.9214 24.1323Z" fill="#2B2E27"/>
<path opacity="0.12" fill-rule="evenodd" clip-rule="evenodd" d="M31.8787 21.2993L26.9092 24.1322L26.9986 24.2219L31.8663 21.4439C32.5642 21.0449 32.9069 20.5212 32.9069 20C32.8647 20.4788 32.5095 20.9327 31.8787 21.2993Z" fill="#2B2E27"/>
<path opacity="0.25" fill-rule="evenodd" clip-rule="evenodd" d="M12.46 7.62329L31.8788 18.7006C32.5096 19.0572 32.8648 19.5235 32.9194 19.9999C32.9194 19.4787 32.5767 18.955 31.8788 18.556L12.46 7.47866C11.0668 6.67816 9.93677 7.34649 9.93677 8.94499V9.08963C9.93677 7.48863 11.0668 6.83277 12.46 7.62329Z" fill="white"/>
<defs>
<linearGradient id="paint0_linear" x1="21.7097" y1="8.70654" x2="1.93526" y2="13.9538" gradientUnits="userSpaceOnUse">
<stop stop-color="#00A0FF"/>
<stop offset="0.00657" stop-color="#00A1FF"/>
<stop offset="0.2601" stop-color="#00BEFF"/>
<stop offset="0.5122" stop-color="#00D2FF"/>
<stop offset="0.7604" stop-color="#00DFFF"/>
<stop offset="1" stop-color="#00E3FF"/>
</linearGradient>
<linearGradient id="paint1_linear" x1="33.6955" y1="20" x2="9.59777" y2="20" gradientUnits="userSpaceOnUse">
<stop stop-color="#FFE000"/>
<stop offset="0.4087" stop-color="#FFBD00"/>
<stop offset="0.7754" stop-color="#FFA500"/>
<stop offset="1" stop-color="#FF9C00"/>
</linearGradient>
<linearGradient id="paint2_linear" x1="24.7246" y1="22.2973" x2="8.76185" y2="49.0538" gradientUnits="userSpaceOnUse">
<stop stop-color="#FF3A44"/>
<stop offset="1" stop-color="#C31162"/>
</linearGradient>
<linearGradient id="paint3_linear" x1="7.26483" y1="0.178683" x2="14.3865" y2="12.1286" gradientUnits="userSpaceOnUse">
<stop stop-color="#32A071"/>
<stop offset="0.0685" stop-color="#2DA771"/>
<stop offset="0.4762" stop-color="#15CF74"/>
<stop offset="0.8009" stop-color="#06E775"/>
<stop offset="1" stop-color="#00F076"/>
</linearGradient>
</defs>
</svg>
