<svg width="12" height="10" viewBox="0 0 12 10" fill="none" xmlns="http://www.w3.org/2000/svg">
<path fill-rule="evenodd" clip-rule="evenodd" d="M0.71429 5.71432H9.18935L6.59433 8.82863C6.34147 9.13149 6.3829 9.5822 6.68576 9.83435C6.98933 10.0872 7.43933 10.0458 7.69219 9.74292L11.2636 5.45718C11.2915 5.42361 11.3051 5.38432 11.3258 5.34718C11.3429 5.31718 11.3636 5.29146 11.3765 5.25861C11.4086 5.17646 11.4279 5.09003 11.4279 5.00289C11.4279 5.00218 11.4286 5.00075 11.4286 5.00003C11.4286 4.99932 11.4279 4.99789 11.4279 4.99717C11.4279 4.91003 11.4086 4.8236 11.3765 4.74146C11.3636 4.7086 11.3429 4.68289 11.3258 4.65289C11.3051 4.61574 11.2915 4.57646 11.2636 4.54289L7.69219 0.257145C7.55005 0.0878577 7.34719 0 7.1429 0C6.98147 0 6.81933 0.0542861 6.68576 0.165715C6.3829 0.41786 6.34147 0.868577 6.59433 1.17144L9.18935 4.28574H0.71429C0.320002 4.28574 0 4.60574 0 5.00003C0 5.39432 0.320002 5.71432 0.71429 5.71432Z" fill="white"/>
</svg>
