<svg width="1440" height="282" viewBox="0 0 1440 282" fill="none" xmlns="http://www.w3.org/2000/svg">
<g opacity="0.3" clip-path="url(#clip0)">
<path d="M1429.24 36.3096L1425.47 37.8214C1424.59 38.1741 1423.28 37.8229 1422.68 36.314L1421.62 33.6736C1421.11 32.4162 1420.03 31.5366 1418.67 31.0595C1415.7 30.2063 1413.56 28.1451 1412.46 25.3789C1410.67 20.5506 1413.05 15.2163 1417.65 13.226C1420.04 12.2686 1422.66 12.2417 1424.95 13.2211C1427.24 14.2006 1429.15 16.0607 1430.11 18.4497C1431.17 21.0902 1431.04 24.0584 1429.56 26.5497C1428.78 27.8833 1428.71 29.5184 1429.21 30.7758L1430.37 33.6677C1430.77 34.6736 1430.25 35.9065 1429.24 36.3096ZM1418.28 14.433C1414.26 16.0456 1412.23 20.801 1413.71 24.875C1414.67 27.264 1416.58 29.1241 1419.02 29.7513C1420.86 30.3286 1422.22 31.5351 1422.87 33.1697L1423.93 35.8101C1424.03 36.0616 1424.34 36.816 1424.96 36.564L1428.74 35.0523C1429.11 34.9011 1429.26 34.5488 1429.11 34.1716L1427.95 31.2797C1427.3 29.6451 1427.47 27.5321 1428.4 25.8461C1429.61 23.7575 1429.76 21.2169 1428.85 18.9536C1428.05 16.9419 1426.54 15.3582 1424.42 14.454C1422.48 13.6253 1420.3 13.6267 1418.28 14.433Z" fill="#2B2E27"/>
<path d="M1428.99 32.0339L1422.7 34.5535C1422.32 34.7047 1421.97 34.554 1421.82 34.1768C1421.67 33.7996 1421.82 33.4473 1422.2 33.2961L1428.48 30.7765C1428.86 30.6253 1429.21 30.776 1429.36 31.1532C1429.51 31.5304 1429.36 31.8827 1428.99 32.0339Z" fill="#2B2E27"/>
<path d="M1416.77 10.6607C1416.39 10.8119 1416.04 10.6612 1415.89 10.284L1414.88 7.76931C1414.73 7.3921 1414.88 7.03984 1415.26 6.88866C1415.64 6.73749 1415.99 6.88818 1416.14 7.26538L1417.15 9.78011C1417.3 10.1573 1417.15 10.5096 1416.77 10.6607Z" fill="#2B2E27"/>
<path d="M1426.61 10.8043C1426.48 10.8547 1426.23 10.9555 1426.05 10.8802C1425.7 10.7295 1425.55 10.3523 1425.7 10L1426.76 7.53423C1426.91 7.18197 1427.28 7.0308 1427.64 7.18148C1427.99 7.33217 1428.14 7.70938 1427.99 8.06164L1426.93 10.5274C1426.93 10.5274 1426.73 10.754 1426.61 10.8043Z" fill="#2B2E27"/>
<path d="M1436.02 16.8081L1433.5 17.8159C1433.13 17.9671 1432.77 17.8164 1432.62 17.4392C1432.47 17.062 1432.62 16.7098 1433 16.5586L1435.51 15.5507C1435.89 15.3996 1436.24 15.5502 1436.4 15.9274C1436.55 16.3047 1436.4 16.6569 1436.02 16.8081Z" fill="#2B2E27"/>
<path d="M1435.83 28.708C1435.7 28.7584 1435.45 28.8592 1435.27 28.7838L1432.81 27.729C1432.45 27.5783 1432.3 27.2011 1432.45 26.8489C1432.6 26.4966 1432.98 26.3454 1433.33 26.4961L1435.8 27.5509C1436.15 27.7016 1436.3 28.0788 1436.15 28.4311C1436.2 28.5568 1436.08 28.6072 1435.83 28.708Z" fill="#2B2E27"/>
<path d="M1415.46 36.871C1415.33 36.9214 1415.08 37.0222 1414.9 36.9468C1414.55 36.7961 1414.4 36.4189 1414.55 36.0667L1415.6 33.6009C1415.76 33.2486 1416.13 33.0974 1416.48 33.2481C1416.84 33.3988 1416.99 33.776 1416.84 34.1283L1415.78 36.5941C1415.71 36.7702 1415.58 36.8206 1415.46 36.871Z" fill="#2B2E27"/>
<path d="M1409.61 27.3913L1407.1 28.3992C1406.72 28.5504 1406.37 28.3997 1406.22 28.0225C1406.07 27.6453 1406.22 27.293 1406.6 27.1418L1409.11 26.134C1409.49 25.9828 1409.84 26.1335 1409.99 26.5107C1410.14 26.8879 1409.99 27.2402 1409.61 27.3913Z" fill="#2B2E27"/>
<path d="M1409.76 17.5576C1409.63 17.608 1409.38 17.7088 1409.2 17.6334L1406.69 16.4529C1406.34 16.3022 1406.19 15.925 1406.34 15.5727C1406.49 15.2205 1406.86 15.0693 1407.22 15.22L1409.68 16.2748C1410.03 16.4255 1410.19 16.8027 1410.03 17.1549C1409.96 17.3311 1409.88 17.5072 1409.76 17.5576Z" fill="#2B2E27"/>
<path d="M1426.59 20.5899C1426.21 20.7411 1425.86 20.5904 1425.71 20.2132C1424.75 17.8242 1421.93 16.6187 1419.54 17.5762C1419.17 17.7274 1418.81 17.5767 1418.66 17.1995C1418.51 16.8223 1418.66 16.47 1419.04 16.3188C1422.18 15.059 1425.71 16.5659 1426.97 19.7093C1427.12 20.0865 1426.97 20.4388 1426.59 20.5899Z" fill="#2B2E27"/>
</g>
<g opacity="0.3" clip-path="url(#clip1)">
<path d="M323.257 90.1397C323.339 90.2042 323.452 90.2231 323.555 90.179L324.045 89.9676C324.194 89.9036 324.262 89.7313 324.198 89.5828C324.134 89.4341 323.962 89.3657 323.814 89.4296L323.323 89.641C323.174 89.7049 323.106 89.8773 323.17 90.0258C323.19 90.072 323.22 90.1105 323.257 90.1397Z" fill="#2B2E27"/>
<path d="M325.766 91.7891L326.097 91.3698C326.198 91.2429 326.176 91.0587 326.049 90.9584C325.922 90.8582 325.738 90.8797 325.638 91.0067L325.306 91.426C325.206 91.5529 325.228 91.7371 325.355 91.8374C325.482 91.9376 325.666 91.916 325.766 91.7891Z" fill="#2B2E27"/>
<path d="M327.5 93.4865C327.539 93.5175 327.587 93.5388 327.639 93.5464C327.8 93.5695 327.948 93.4584 327.971 93.2983L328.047 92.7694C328.07 92.6093 327.959 92.4608 327.799 92.4377C327.639 92.4147 327.491 92.5257 327.468 92.6859L327.391 93.2148C327.376 93.3219 327.421 93.4239 327.5 93.4865Z" fill="#2B2E27"/>
<path d="M329.682 102.497L329.841 102.295C330.181 101.866 330.264 101.315 330.115 100.828C330.242 100.827 330.37 100.808 330.496 100.771C330.928 100.644 331.272 100.313 331.418 99.8858C331.77 98.8548 332.094 97.2264 331.643 95.3233C331.123 93.1291 329.705 91.0773 327.429 89.2248C327.427 89.2231 327.424 89.2213 327.422 89.2196C326.37 88.4124 325.305 87.7781 324.258 87.3342C324.109 87.2711 323.937 87.3406 323.874 87.4895C323.811 87.6385 323.88 87.8104 324.029 87.8735C325.03 88.2976 326.05 88.906 327.062 89.6818C331.976 93.6834 331.553 97.674 330.864 99.6967C330.778 99.9475 330.584 100.134 330.331 100.209C330.079 100.283 329.818 100.232 329.612 100.07L316.366 89.6043C316.16 89.4412 316.049 89.1968 316.063 88.9338C316.077 88.6739 316.21 88.4454 316.429 88.3071C317.752 87.4707 319.929 86.6407 322.784 87.4358C322.94 87.4792 323.102 87.3881 323.145 87.2323C323.188 87.0764 323.097 86.9149 322.941 86.8715C321.551 86.4844 320.177 86.4267 318.858 86.7002C317.887 86.9013 316.965 87.2754 316.116 87.812C315.735 88.0532 315.502 88.4509 315.478 88.9031C315.471 89.0348 315.484 89.1651 315.513 89.2907C315.004 89.2576 314.488 89.4663 314.149 89.8958L313.989 90.0983C313.509 90.7051 313.54 91.5541 314.019 92.1242L312.93 93.493C312.266 93.1621 311.436 93.3292 310.958 93.9344L310.798 94.1369C310.319 94.7434 310.349 95.5918 310.828 96.1619C310.621 96.3916 310.319 96.7903 310.113 97.3372C309.559 98.8112 310.134 100.176 310.714 101.061C311.049 101.572 311.473 102.032 311.975 102.429L318.151 107.308C318.653 107.705 319.199 108.012 319.773 108.219C320.769 108.578 322.23 108.822 323.535 107.942C324.02 107.616 324.338 107.229 324.514 106.975C325.179 107.309 326.011 107.142 326.491 106.536L326.651 106.333C327.13 105.727 327.099 104.878 326.62 104.308L327.703 102.936C328.369 103.271 329.202 103.104 329.682 102.497ZM311.257 94.5L311.417 94.2976C311.693 93.9483 312.153 93.8297 312.552 93.9687L312.444 94.1038C312.187 94.43 312.141 94.8636 312.326 95.2355C312.511 95.6095 312.887 95.8368 313.305 95.8288C313.501 95.825 313.717 95.8489 313.968 96.0476C313.995 96.0685 314.019 96.0893 314.042 96.11L313.124 97.2719L311.425 95.9296C310.985 95.5817 310.909 94.9404 311.257 94.5ZM321.836 99.9381L326.447 103.582L325.676 104.558C325.558 104.707 325.378 104.77 325.194 104.728C325.007 104.684 324.871 104.546 324.83 104.358C324.772 104.091 324.654 103.744 324.255 103.428C323.761 103.038 323.35 103.039 322.987 103.039C322.668 103.04 322.417 103.04 322.083 102.777C321.75 102.513 321.692 102.268 321.618 101.958C321.535 101.605 321.44 101.205 320.947 100.815C320.453 100.425 320.024 100.426 319.679 100.426C319.361 100.426 319.109 100.427 318.775 100.163C318.442 99.8997 318.384 99.6548 318.311 99.3447C318.231 99.0091 318.133 98.5913 317.639 98.2014C317.146 97.8115 316.734 97.8121 316.371 97.8125C316.144 97.8128 315.951 97.8122 315.738 97.7167L316.76 96.4227C316.893 96.2548 317.138 96.2261 317.305 96.3588L320.758 99.0867C320.885 99.187 321.069 99.1654 321.169 99.0385C321.27 98.9116 321.248 98.7274 321.121 98.6271L317.669 95.8991C317.247 95.5662 316.634 95.6382 316.301 96.0595L314.065 98.8898C313.867 99.1397 313.503 99.1824 313.253 98.985C313.003 98.7875 312.961 98.4234 313.158 98.1735L315.394 95.3432C315.727 94.9219 315.655 94.3083 315.234 93.9754L314.045 93.0363L314.458 92.5132L327.223 102.599L326.81 103.122L322.199 99.4785C322.072 99.3782 321.888 99.3998 321.787 99.5268C321.687 99.6537 321.709 99.8379 321.836 99.9381ZM314.871 94.435C315.039 94.5677 315.067 94.8122 314.935 94.9801L314.406 95.6497C314.382 95.6291 314.357 95.6085 314.331 95.5879C313.932 95.2723 313.567 95.2378 313.294 95.2431C313.101 95.2467 312.936 95.1466 312.85 94.975C312.766 94.8057 312.786 94.6157 312.904 94.4669L313.675 93.4906L314.871 94.435ZM323.208 107.456C322.323 108.053 321.235 108.124 319.972 107.668C319.458 107.482 318.967 107.206 318.514 106.849L312.339 101.969C311.886 101.612 311.504 101.198 311.204 100.74C309.763 98.541 310.822 97.0333 311.264 96.5492L312.761 97.7315L312.698 97.8103C312.301 98.3137 312.387 99.0468 312.89 99.4446C313.393 99.8423 314.126 99.7564 314.524 99.2529L314.587 99.1741L324.035 106.639C323.892 106.846 323.624 107.176 323.208 107.456ZM326.191 105.97L326.031 106.173C325.683 106.613 325.042 106.688 324.601 106.34L314.95 98.7145L315.367 98.1858C315.747 98.3983 316.076 98.3986 316.372 98.3983C316.691 98.3979 316.942 98.3976 317.276 98.6611C317.609 98.9246 317.667 99.1694 317.741 99.4795C317.82 99.8152 317.919 100.233 318.412 100.623C318.906 101.013 319.317 101.012 319.68 101.012C319.999 101.011 320.25 101.011 320.584 101.274C320.917 101.538 320.975 101.783 321.048 102.093C321.132 102.446 321.227 102.846 321.72 103.236C322.213 103.626 322.625 103.626 322.988 103.625C323.306 103.625 323.558 103.624 323.891 103.888C324.143 104.087 324.216 104.291 324.258 104.483C324.347 104.892 324.655 105.204 325.062 105.298C325.466 105.392 325.877 105.247 326.135 104.921L326.244 104.783C326.477 105.139 326.469 105.619 326.191 105.97ZM327.792 102.302L314.616 91.891C314.176 91.5431 314.1 90.9017 314.448 90.4614L314.608 90.2589C314.956 89.8186 315.598 89.7434 316.038 90.0913L329.214 100.502C329.655 100.85 329.73 101.491 329.382 101.932L329.222 102.134C328.874 102.574 328.233 102.65 327.792 102.302Z" fill="#2B2E27"/>
</g>
<g opacity="0.3" clip-path="url(#clip2)">
<path d="M1024.43 278.762C1024.32 278.762 1024.22 278.719 1024.14 278.643L1011.9 266.396C1011.85 266.351 1011.82 266.296 1011.8 266.235C1011.78 266.174 1011.77 266.11 1011.78 266.047L1013.2 257.097C1013.21 257.013 1013.25 256.934 1013.31 256.874C1013.37 256.813 1013.45 256.773 1013.53 256.76L1022.48 255.347C1022.55 255.337 1022.61 255.342 1022.67 255.362C1022.73 255.382 1022.79 255.415 1022.83 255.461L1035.08 267.707C1035.15 267.783 1035.2 267.886 1035.2 267.994C1035.2 268.101 1035.15 268.204 1035.08 268.28L1024.72 278.643C1024.64 278.719 1024.54 278.762 1024.43 278.762ZM1012.62 265.969L1024.43 277.783L1034.22 267.994L1022.41 256.18L1013.95 257.515L1012.62 265.969Z" fill="#2B2E27"/>
<path d="M1017.36 262.999C1016.89 262.998 1016.42 262.832 1016.05 262.528C1015.68 262.224 1015.43 261.801 1015.34 261.332C1015.24 260.862 1015.32 260.374 1015.54 259.952C1015.77 259.53 1016.13 259.2 1016.57 259.017C1017.02 258.834 1017.51 258.81 1017.97 258.949C1018.43 259.088 1018.82 259.382 1019.09 259.78C1019.35 260.178 1019.47 260.656 1019.43 261.133C1019.38 261.609 1019.17 262.054 1018.83 262.393C1018.64 262.585 1018.41 262.738 1018.16 262.842C1017.91 262.946 1017.64 262.999 1017.36 262.999ZM1017.36 259.669C1017.07 259.669 1016.79 259.77 1016.57 259.955C1016.34 260.14 1016.19 260.398 1016.13 260.684C1016.07 260.969 1016.12 261.266 1016.25 261.523C1016.39 261.78 1016.61 261.982 1016.88 262.093C1017.15 262.205 1017.45 262.219 1017.73 262.135C1018.01 262.05 1018.25 261.871 1018.41 261.629C1018.57 261.387 1018.65 261.096 1018.62 260.806C1018.59 260.516 1018.46 260.244 1018.26 260.038C1018.14 259.921 1018 259.827 1017.85 259.764C1017.69 259.701 1017.53 259.668 1017.36 259.669V259.669Z" fill="#2B2E27"/>
<path d="M1009.35 266.36L1008.84 265.258C1008.81 265.2 1008.8 265.136 1008.8 265.073C1008.8 265.009 1008.82 264.946 1008.85 264.89L1013.24 256.964L1013.95 257.357L1009.66 265.102L1010.09 266.017L1009.35 266.36Z" fill="#2B2E27"/>
<path d="M1016.53 281.188C1016.45 281.188 1016.37 281.166 1016.31 281.125C1016.24 281.083 1016.19 281.024 1016.16 280.954L1010.09 267.931L1010.82 267.588L1016.72 280.244L1023.4 277.13L1023.74 277.864L1016.7 281.148C1016.65 281.174 1016.59 281.187 1016.53 281.188Z" fill="#2B2E27"/>
<path d="M1016.37 261.688C1016.12 261.686 1015.88 261.655 1015.63 261.597L1015.81 260.807C1016.15 260.883 1016.76 260.963 1017.08 260.642C1017.39 260.326 1017.39 259.665 1017.07 258.829C1016.61 257.721 1015.92 256.719 1015.05 255.887C1013.05 253.887 1010.94 253.211 1010.29 253.855C1009.65 254.499 1010.32 256.612 1012.32 258.61C1012.46 258.744 1012.59 258.872 1012.73 258.996L1012.18 259.597C1012.04 259.465 1011.89 259.327 1011.75 259.183C1009.49 256.922 1008.62 254.385 1009.72 253.282C1010.82 252.179 1013.36 253.052 1015.62 255.313C1016.57 256.227 1017.32 257.325 1017.83 258.54C1018.28 259.705 1018.21 260.655 1017.65 261.216C1017.48 261.377 1017.28 261.502 1017.06 261.583C1016.84 261.664 1016.61 261.7 1016.37 261.688Z" fill="#2B2E27"/>
</g>
<g opacity="0.3" clip-path="url(#clip3)">
<path d="M0.567564 217.34H2.51826C2.86593 219.379 5.11018 220.794 7.53071 220.501C9.47625 220.266 11.0048 218.979 11.2842 217.34H26.5867C26.9305 219.379 29.1719 220.797 31.5932 220.508C33.6769 220.259 35.2645 218.809 35.3905 217.04L37.7525 215.051C37.8708 214.95 37.9371 214.815 37.9368 214.674V209.873C37.9368 209.752 37.8878 209.635 37.7981 209.54L35.5178 207.14L36.6067 205.311C36.7629 205.048 36.6358 204.727 36.3227 204.596C36.2549 204.567 36.1817 204.549 36.1064 204.543L32.6512 204.236L26.4625 203.686C22.4013 203.307 18.2909 203.743 14.4683 204.959C12.2669 205.722 10.2167 206.763 8.38789 208.047L7.17685 208.897L6.31271 209.293L2.31879 210.6C2.29327 210.608 2.26853 210.618 2.24456 210.629C0.820389 211.283 -0.065918 212.54 -0.065918 213.907V216.807C-0.065918 217.102 0.217577 217.34 0.567564 217.34ZM6.90135 219.474C5.15219 219.474 3.73446 218.28 3.73446 216.807C3.73446 215.334 5.15219 214.14 6.90135 214.14C8.65025 214.14 10.0682 215.334 10.0682 216.807C10.0662 218.279 8.64948 219.472 6.90135 219.474ZM30.9698 219.474C29.2206 219.474 27.8026 218.28 27.8026 216.807C27.8026 215.334 29.2206 214.14 30.9698 214.14C32.7187 214.14 34.1367 215.334 34.1367 216.807C34.1344 218.279 32.7179 219.472 30.9698 219.474ZM36.6701 212.007H34.6312L34.3145 210.94H36.6701V212.007ZM32.9166 205.332L35.0611 205.522L34.2029 206.968C34.0926 207.154 34.1207 207.377 34.2753 207.54L36.492 209.873H33.5032C33.1532 209.873 32.87 210.112 32.87 210.407C32.87 210.45 32.8762 210.494 32.8888 210.536L33.522 212.669C33.5924 212.907 33.8457 213.073 34.1364 213.073H36.6698V214.453L35.2006 215.69C35.2006 215.684 35.1949 215.679 35.1931 215.674C35.1305 215.512 35.0549 215.355 34.9668 215.203C34.9477 215.17 34.9302 215.136 34.9098 215.103C34.8186 214.954 34.7158 214.811 34.6021 214.674C34.5792 214.646 34.5539 214.62 34.5305 214.593C34.4204 214.467 34.3008 214.347 34.1725 214.234C34.1555 214.219 34.1395 214.201 34.1212 214.186C33.9797 214.067 33.829 213.956 33.6697 213.853C33.6328 213.83 33.5967 213.807 33.5602 213.784C33.3973 213.684 33.2267 213.594 33.0496 213.513C33.0262 213.502 33.0009 213.494 32.9767 213.484C32.8081 213.411 32.6342 213.349 32.4561 213.295C32.4205 213.285 32.3865 213.272 32.3509 213.262C32.1551 213.209 31.9551 213.167 31.7522 213.136C31.7092 213.13 31.6656 213.125 31.6257 213.12C31.4087 213.09 31.1894 213.075 30.9695 213.073C30.8231 213.073 30.678 213.08 30.5355 213.092C30.4881 213.096 30.4417 213.103 30.3951 213.109C30.3 213.119 30.2049 213.129 30.1131 213.145C30.058 213.154 30.0049 213.166 29.9502 213.177C29.868 213.194 29.7856 213.21 29.7046 213.23C29.6482 213.244 29.5938 213.261 29.5387 213.277C29.4619 213.299 29.3853 213.321 29.3106 213.347C29.2562 213.366 29.2023 213.386 29.1485 213.407C29.0763 213.434 29.0054 213.46 28.9351 213.493C28.8825 213.517 28.8304 213.54 28.7791 213.565C28.7108 213.598 28.6444 213.632 28.5784 213.668C28.5284 213.695 28.4797 213.722 28.4315 213.75C28.3681 213.789 28.3049 213.829 28.2415 213.87C28.1959 213.9 28.1503 213.929 28.1065 213.96C28.0431 214.005 27.9856 214.052 27.9266 214.099C27.8861 214.13 27.8457 214.161 27.807 214.194C27.7436 214.247 27.6892 214.301 27.6315 214.354C27.5993 214.386 27.5681 214.415 27.5346 214.447C27.4673 214.517 27.4047 214.589 27.3447 214.661C27.3274 214.682 27.3078 214.701 27.2908 214.723C27.2148 214.818 27.1439 214.915 27.0784 215.017C27.0596 215.045 27.0444 215.076 27.0266 215.105C26.9815 215.179 26.9372 215.253 26.8998 215.329C26.8797 215.37 26.8625 215.411 26.8429 215.453C26.812 215.52 26.7795 215.587 26.7542 215.657C26.7364 215.702 26.722 215.75 26.7068 215.797C26.6846 215.864 26.663 215.93 26.6434 215.997C26.63 216.048 26.6199 216.098 26.6091 216.149C26.6004 216.189 26.5882 216.229 26.5813 216.27H19.7467L20.0635 215.203H24.636V214.14H20.3802L21.7052 209.676L29.7345 209.34C29.9453 209.331 30.1371 209.234 30.2458 209.082L32.9166 205.332ZM23.2007 204.639C23.3489 204.639 23.4964 204.631 23.644 204.631C24.5412 204.63 25.4375 204.669 26.3295 204.747L31.5278 205.21L29.3338 208.288L22.0263 208.593L23.2007 204.639ZM9.19843 208.866C10.9283 207.652 12.8679 206.667 14.9503 205.945C17.1667 205.219 19.5063 204.793 21.8815 204.685L20.7044 208.65L8.7969 209.151L9.19843 208.866ZM1.20079 213.907C1.1995 212.942 1.81777 212.052 2.81722 211.58L6.71141 210.306L20.3802 209.732L19.0741 214.14H11.9682V215.207H18.7574L18.4406 216.274H11.2898C11.2829 216.233 11.271 216.193 11.262 216.153C11.2514 216.099 11.2411 216.051 11.228 216.001C11.2102 215.934 11.1886 215.867 11.1646 215.801C11.1494 215.754 11.135 215.706 11.1172 215.66C11.0906 215.591 11.0594 215.524 11.0285 215.457C11.0087 215.415 10.9917 215.373 10.9713 215.333C10.9321 215.257 10.8878 215.182 10.8448 215.109C10.827 215.08 10.8118 215.049 10.7927 215.02C10.7278 214.92 10.6571 214.822 10.5806 214.726C10.5636 214.705 10.5437 214.686 10.5267 214.665C10.4633 214.591 10.4002 214.519 10.3368 214.451C10.3056 214.419 10.2734 214.389 10.2399 214.358C10.1822 214.305 10.1252 214.247 10.0644 214.198C10.0257 214.165 9.98526 214.134 9.94479 214.103C9.88577 214.055 9.82701 214.009 9.7649 213.964C9.72109 213.933 9.67547 213.903 9.62986 213.874C9.56646 213.833 9.50306 213.793 9.43991 213.754C9.39172 213.726 9.34301 213.701 9.29301 213.672C9.22961 213.636 9.16054 213.602 9.09199 213.569C9.0407 213.544 8.9889 213.52 8.93633 213.497C8.86597 213.467 8.79509 213.438 8.72293 213.411C8.66907 213.39 8.6152 213.37 8.56082 213.351C8.48608 213.325 8.40928 213.303 8.33274 213.28C8.27759 213.265 8.22321 213.248 8.16677 213.234C8.08558 213.214 8.00337 213.197 7.9209 213.181C7.86652 213.17 7.81343 213.158 7.75828 213.149C7.66575 213.133 7.57143 213.123 7.47633 213.112C7.42942 213.107 7.38329 213.1 7.33587 213.096C7.19258 213.081 7.04748 213.074 6.90135 213.074C6.75496 213.074 6.60987 213.081 6.46734 213.092C6.41992 213.096 6.37353 213.104 6.32689 213.109C6.23179 213.119 6.13669 213.13 6.04494 213.145C5.98979 213.154 5.93669 213.166 5.88206 213.177C5.79984 213.194 5.71737 213.21 5.63645 213.23C5.58001 213.244 5.52537 213.261 5.47047 213.277C5.39367 213.299 5.31713 213.322 5.24239 213.347C5.18775 213.366 5.13415 213.386 5.08028 213.407C5.00812 213.434 4.93725 213.46 4.86689 213.493C4.81431 213.517 4.76225 213.54 4.71097 213.565C4.64267 213.598 4.57618 213.633 4.5102 213.668C4.4602 213.695 4.41149 213.722 4.3633 213.75C4.2999 213.789 4.2365 213.829 4.17336 213.87C4.12774 213.9 4.08212 213.929 4.03831 213.961C3.97491 214.005 3.91744 214.052 3.85842 214.099C3.84012 214.112 3.82105 214.126 3.80404 214.14H1.20079V213.907ZM1.20079 215.207H2.90021C2.87624 215.249 2.8515 215.29 2.82934 215.333C2.80717 215.375 2.79197 215.415 2.77238 215.457C2.74119 215.524 2.70898 215.591 2.68372 215.66C2.66594 215.706 2.65125 215.754 2.63604 215.801C2.61388 215.867 2.59249 215.933 2.57264 216.001C2.5595 216.051 2.54945 216.101 2.53862 216.153C2.5296 216.193 2.51775 216.233 2.51079 216.274H1.20079V215.207Z" fill="#2B2E27"/>
<path d="M15.135 210.407H18.3019V211.474H15.135V210.407Z" fill="#2B2E27"/>
<path d="M25.269 210.407H29.0694V211.474H25.269V210.407Z" fill="#2B2E27"/>
</g>
<g opacity="0.2">
<path d="M592.929 250.288C592.581 248.377 592.029 246.641 591.288 245.128C590.692 243.909 589.973 242.831 589.15 241.924C588.239 240.919 587.404 240.346 586.908 240.059C588.659 237.283 588.711 234.768 588.711 234.742C588.711 234.133 588.41 233.586 587.934 233.213V231.437C587.934 231.196 587.741 231 587.503 231C587.264 231 587.071 231.196 587.071 231.437V232.787C586.867 232.734 586.652 232.705 586.428 232.705C585.603 232.705 584.871 233.102 584.47 233.697C584.069 233.101 583.337 232.705 582.511 232.705C582.287 232.705 582.071 232.734 581.866 232.788V231.437C581.866 231.196 581.673 231 581.435 231C581.196 231 581.003 231.196 581.003 231.437V233.215C580.529 233.588 580.229 234.134 580.229 234.742C580.229 234.768 580.28 237.286 582.034 240.063C581.538 240.352 580.706 240.924 579.8 241.924C578.977 242.831 578.258 243.909 577.662 245.128C576.921 246.641 576.369 248.377 576.021 250.288C575.911 250.893 576.244 251.487 576.814 251.7L578.292 252.253C578.43 252.304 578.569 252.354 578.707 252.402C578.712 252.403 578.717 252.405 578.721 252.406C579.977 252.839 581.27 253.126 582.575 253.267C582.596 253.271 582.617 253.273 582.638 253.274C583.249 253.337 583.862 253.37 584.475 253.37C586.57 253.37 588.664 252.998 590.658 252.253L592.136 251.7C592.706 251.487 593.039 250.893 592.929 250.288ZM581.092 234.742C581.092 234.371 581.305 234.04 581.637 233.826C581.652 233.818 581.666 233.809 581.68 233.8C581.914 233.661 582.201 233.579 582.511 233.579C583.26 233.579 583.882 234.058 583.928 234.669C583.95 234.955 584.188 235.179 584.47 235.179C584.752 235.179 584.99 234.955 585.012 234.669C585.058 234.058 585.68 233.579 586.428 233.579C586.734 233.579 587.017 233.658 587.249 233.794C587.268 233.808 587.289 233.82 587.31 233.831C587.637 234.044 587.848 234.373 587.848 234.741C587.848 234.765 587.75 237.212 586.053 239.788C586.031 239.82 586.01 239.852 585.988 239.885C585.658 240.046 585.308 240.152 584.953 240.203C585.043 240.082 585.137 239.943 585.225 239.788C585.345 239.578 585.454 239.338 585.53 239.073C585.597 238.842 585.465 238.599 585.237 238.532C585.008 238.464 584.769 238.597 584.702 238.828C584.585 239.234 584.357 239.569 584.176 239.788C584.033 239.961 583.919 240.062 583.914 240.066C583.877 240.098 583.846 240.135 583.823 240.175C583.524 240.118 583.231 240.021 582.951 239.884C582.93 239.852 582.908 239.82 582.887 239.788C581.19 237.212 581.092 234.765 581.092 234.742ZM591.837 250.88L590.359 251.433C590.289 251.459 590.219 251.484 590.149 251.509C589.934 250.573 589.31 248.191 588.177 246.348C588.051 246.144 587.785 246.081 587.582 246.209C587.38 246.336 587.318 246.606 587.444 246.811C588.53 248.575 589.137 250.957 589.325 251.781C587.293 252.394 585.174 252.612 583.079 252.438C583.097 251.985 583.188 251.175 583.58 250.366C583.684 250.149 583.596 249.887 583.382 249.781C583.168 249.675 582.91 249.764 582.805 249.981C582.364 250.892 582.246 251.796 582.22 252.344C581.248 252.213 580.284 251.995 579.341 251.693C579.555 250.456 580.394 246.321 582.388 244.004C582.545 243.822 582.526 243.546 582.347 243.387C582.167 243.229 581.894 243.248 581.738 243.43C579.65 245.857 578.771 249.948 578.514 251.404L577.113 250.88C576.938 250.815 576.836 250.632 576.869 250.446C577.617 246.343 579.2 243.892 580.397 242.558C581.396 241.443 582.3 240.902 582.662 240.712C583.236 240.977 583.853 241.111 584.47 241.111C585.089 241.111 585.708 240.976 586.283 240.709C587.106 241.139 590.802 243.429 592.081 250.446C592.114 250.632 592.012 250.815 591.837 250.88Z" fill="#2B2E27"/>
</g>
<path opacity="0.2" d="M0 214.197C265.347 195.905 537.366 228.193 793.328 246.173C895.294 253.335 1031.82 261.499 1130.71 246.821C1255.59 228.288 1354.57 201.567 1392.81 160.074C1429.5 120.267 1427.99 83.1276 1427.99 41.9993" stroke="#2B2E27" stroke-linecap="round" stroke-linejoin="round" stroke-dasharray="10 10"/>
<path opacity="0.2" d="M309 107.756C251.582 122.441 192.721 96.5197 137.334 82.0852C115.27 76.3351 85.7291 69.7812 64.3289 81.5649C37.3082 96.4434 15.8898 117.896 7.61457 151.207C-0.324553 183.164 0.00187179 212.981 0.00187179 245.999" stroke="#2B2E27" stroke-linecap="round" stroke-linejoin="round" stroke-dasharray="10 10"/>
<defs>
<clipPath id="clip0">
<rect width="32.51" height="32.51" fill="white" transform="translate(1400.17 12.9351) rotate(-21.8399)"/>
</clipPath>
<clipPath id="clip1">
<rect width="20" height="20" fill="white" transform="translate(319.598 82.9993) rotate(38.3124)"/>
</clipPath>
<clipPath id="clip2">
<rect width="30" height="30" fill="white" transform="translate(1007 251.999)"/>
</clipPath>
<clipPath id="clip3">
<rect width="38" height="32" fill="white" transform="translate(0 195.999)"/>
</clipPath>
</defs>
</svg>
