<svg width="77" height="12" viewBox="0 0 77 12" fill="none" xmlns="http://www.w3.org/2000/svg">
<path d="M44.2631 4.58102L40.6976 7.05438L41.7444 11.0738L38.2799 8.64613L34.5922 10.9452L36.0163 6.9704L32.6909 4.37269L37.0354 4.344L38.6678 0.439453L39.9282 4.39605L44.2631 4.58102Z" fill="#FFC600"/>
<path d="M27.9171 4.58102L24.3516 7.05438L25.3984 11.0738L21.9339 8.64613L18.2462 10.9452L19.6703 6.9704L16.345 4.37269L20.6894 4.344L22.3218 0.439453L23.5822 4.39605L27.9171 4.58102Z" fill="#FFC600"/>
<path d="M11.5722 4.58102L8.00667 7.05438L9.05349 11.0738L5.58895 8.64613L1.90124 10.9452L3.32531 6.9704L0 4.37269L4.34449 4.344L5.97684 0.439453L7.23725 4.39605L11.5722 4.58102Z" fill="#FFC600"/>
<path d="M60.6069 4.58102L57.0413 7.05438L58.0882 11.0738L54.6236 8.64613L50.9359 10.9452L52.36 6.9704L49.0347 4.37269L53.3792 4.344L55.0115 0.439453L56.2719 4.39605L60.6069 4.58102Z" fill="#FFC600"/>
<path d="M76.953 4.58102L73.3875 7.05438L74.4343 11.0738L70.9698 8.64613L67.2821 10.9452L68.7061 6.9704L65.3809 4.37269L69.7253 4.344L71.3577 0.439453L72.6181 4.39605L76.953 4.58102Z" fill="#C1C8CE"/>
</svg>
